<?xml version="1.0" encoding="UTF-8" standalone="no"?> <svg id="Layer_1" data-name="Layer 1" xmlns="http://www.w3.org/2000/svg" viewBox="0 0 100 100"><path d="M82.483,53.829l-.87-.441a.305.305,0,0,0-.14-.036.287.287,0,0,0-.085.013.269.269,0,0,0-.162.137l-1.368,2.674,0,.008-1.069,2.089a.279.279,0,0,0-.017.221.286.286,0,0,0,.144.171l.86.439a.286.286,0,0,0,.382-.127l2.439-4.769a.29.29,0,0,0,.018-.225A.259.259,0,0,0,82.483,53.829Z"/><path d="M52.43,30.53a.369.369,0,0,0,.36-.36V26.31a.369.369,0,0,0-.36-.36H30.14a.365.365,0,0,0-.36.36v3.86a.275.275,0,0,0,.07.2.173.173,0,0,0,.092.092.275.275,0,0,0,.2.07H52.43Z"/><rect x="6.5" y="77.4" width="87" height="7.424"/><path d="M50,22.95V20.81a5.636,5.636,0,0,0-5.63-5.63H10.53A4.035,4.035,0,0,0,6.5,19.21v3.74H50Z"/><path d="M71.709,50.894a.284.284,0,0,0-.253.159l-2.44,4.77a.284.284,0,0,0-.021.221.271.271,0,0,0,.138.161l.86.44a.3.3,0,0,0,.228.019.239.239,0,0,0,.147-.125L71.975,53.4a.192.192,0,0,1,.013-.017l.835-1.63a.294.294,0,0,0-.126-.385l-.86-.44A.284.284,0,0,0,71.709,50.894Z"/><path d="M6.5,51.458v.359a10.142,10.142,0,1,0,20.283,0A11.674,11.674,0,0,1,38.444,40.156H50V33.53H30.14a3.365,3.365,0,0,1-3.36-3.36V26.31a3.3,3.3,0,0,1,.037-.36H6.5Z"/><path d="M46.36,48.92v.64a1.607,1.607,0,0,0,1.6,1.61H59.39A1.623,1.623,0,0,0,61,49.56v-.64a1.612,1.612,0,0,0-1.61-1.61H47.96A1.607,1.607,0,0,0,46.36,48.92Z"/><path d="M87.2,59.408l-3.418-.931-.955,1.866a3.277,3.277,0,0,1-.32.495c-.033.043-.068.084-.1.126a3.357,3.357,0,0,1-.323.33c-.03.026-.058.055-.088.081a3.4,3.4,0,0,1-.46.315c-.039.022-.08.04-.12.061a3.365,3.365,0,0,1-.409.177c-.047.017-.092.035-.14.049a3.269,3.269,0,0,1-.546.123l-.057,0a3.288,3.288,0,0,1-.372.025c-.032,0-.064-.01-.1-.011a3.522,3.522,0,0,1-.465-.053c-.077-.014-.153-.019-.23-.038a3.322,3.322,0,0,1-.678-.245l-.872-.447a3.3,3.3,0,0,1-1.432-4.428l.228-.446-2.249-.613-1.049,2.045a3.222,3.222,0,0,1-1.888,1.622,3.331,3.331,0,0,1-.585.13c-.062.008-.123.009-.185.014-.086.007-.173.021-.259.021-.037,0-.073-.012-.11-.013a3.165,3.165,0,0,1-.484-.058c-.076-.014-.152-.021-.227-.04a3.308,3.308,0,0,1-.68-.254l-.86-.44a3.277,3.277,0,0,1-1.422-4.418l.319-.625-3.952-1.076a4.607,4.607,0,0,1-.63.537l-.154.106a4.591,4.591,0,0,1-1.5.645c-.067.015-.133.028-.2.041a4.627,4.627,0,0,1-.835.085H47.96a4.61,4.61,0,0,1-4.6-4.61v-.64a4.61,4.61,0,0,1,4.6-4.61h2.4a10.264,10.264,0,0,1-.237-1.154H38.444a8.671,8.671,0,0,0-8.661,8.661A13.136,13.136,0,0,1,6.5,60.165V74.4H52.483l.661-.994a8.344,8.344,0,0,1,6.963-3.732H93.5V67.63A8.534,8.534,0,0,0,87.2,59.408Z"/><path d="M93.5,72.674H60.107a5.342,5.342,0,0,0-3.93,1.726H93.5Z"/></svg>