<?xml version="1.0" encoding="UTF-8"?>
<!DOCTYPE svg PUBLIC "-//W3C//DTD SVG 1.1//EN" "http://www.w3.org/Graphics/SVG/1.1/DTD/svg11.dtd">
<!-- Creator: CorelDRAW -->
<svg xmlns="http://www.w3.org/2000/svg" xml:space="preserve" width="512px" height="512px" version="1.1" style="shape-rendering:geometricPrecision; text-rendering:geometricPrecision; image-rendering:optimizeQuality; fill-rule:evenodd; clip-rule:evenodd"
viewBox="0 0 512 512"
 xmlns:xlink="http://www.w3.org/1999/xlink">
 <defs>
  <style type="text/css">
   <![CDATA[
    .fil0 {fill:black}
   ]]>
  </style>
 </defs>
 <g id="Layer_x0020_1">
  <metadata id="CorelCorpID_0Corel-Layer"/>
  <path class="fil0" d="M204 512c-1,0 -3,0 -4,-1l-156 -90c-3,-2 -4,-6 -2,-10 4,-7 10,-16 16,-26 8,-14 18,-28 26,-43l167 96 0 0 -41 70c-1,2 -2,3 -4,4 -1,0 -1,0 -2,0zm67 -149c-4,0 -8,-1 -11,-3l-93 -53c-5,-3 -8,-8 -10,-13 -1,-6 -1,-12 2,-17l47 -81c4,-7 11,-11 19,-11 4,0 8,1 11,3l92 53c11,6 15,19 9,30l-47 81c-4,7 -12,11 -19,11zm-46 -164c-3,0 -5,1 -7,4l-47 81c-1,2 -1,4 0,6 0,2 1,4 3,5l93 53c1,1 2,1 4,1 2,0 5,-1 7,-4l46 -81c3,-4 1,-9 -3,-11l-92 -53c-1,-1 -2,-1 -4,-1zm-135 131c8,-15 14,-28 16,-39 8,-47 72,-202 74,-209 0,0 0,0 1,0l37 -74c3,-5 8,-8 13,-8 2,0 5,1 7,2l32 16c3,2 6,5 7,8 1,4 1,8 -1,11 -3,6 -6,12 -9,18 -6,13 -13,26 -19,37 -3,5 -4,9 -4,12 2,-2 5,-5 8,-10l38 -74c3,-4 8,-7 13,-7 2,0 5,0 7,1l32 16c3,2 6,5 7,8 1,4 1,8 -1,11l-40 78c0,0 0,0 -1,0 -2,4 -3,8 -3,11 2,-2 4,-5 7,-9l45 -84c2,-5 7,-8 12,-8 3,0 5,1 7,2l32 15c4,2 6,5 7,9 2,3 1,7 0,11l-47 87c0,0 0,0 0,0 -2,5 -4,9 -4,11 2,-1 5,-4 7,-9l42 -78c2,-4 7,-7 12,-7 3,0 5,0 7,1l32 16c4,2 6,5 7,8 2,4 1,8 -1,11 0,0 0,0 0,0l-80 147 36 -24c2,-2 5,-3 8,-3 5,0 10,3 13,7l21 35c5,7 3,16 -4,21 -21,13 -40,30 -59,47 -38,33 -73,64 -116,71 -1,0 -1,0 -1,0 -13,1 -21,4 -28,12l-169 -97z"/>
 </g>
</svg>
